<mxfile host="Electron" modified="2023-04-18T14:42:24.540Z" agent="Mozilla/5.0 (Macintosh; Intel Mac OS X 10_15_7) AppleWebKit/537.36 (KHTML, like Gecko) draw.io/21.1.2 Chrome/106.0.5249.199 Electron/21.4.3 Safari/537.36" etag="5W0w-aoV8AB-dNvq67dT" version="21.1.2" type="device">
  <diagram name="Page-1" id="BsyzVxbvl3PcPUn3kMAW">
    <mxGraphModel dx="2593" dy="1068" grid="1" gridSize="10" guides="1" tooltips="1" connect="1" arrows="1" fold="1" page="1" pageScale="1" pageWidth="1169" pageHeight="827" math="0" shadow="0">
      <root>
        <mxCell id="0" />
        <mxCell id="1" parent="0" />
        <mxCell id="zQvSkyohi6HbgcWA1lgZ-41" style="edgeStyle=orthogonalEdgeStyle;rounded=0;orthogonalLoop=1;jettySize=auto;html=1;entryX=1;entryY=0.5;entryDx=0;entryDy=0;startArrow=classic;startFill=1;" edge="1" parent="1" source="ANhabVghBkRDhz4WXuuL-2" target="ANhabVghBkRDhz4WXuuL-3">
          <mxGeometry relative="1" as="geometry" />
        </mxCell>
        <mxCell id="ANhabVghBkRDhz4WXuuL-2" value="&lt;font style=&quot;font-size: 18px;&quot;&gt;&lt;b style=&quot;font-size: 18px;&quot;&gt;Orchestrator&lt;/b&gt;&lt;/font&gt;" style="ellipse;whiteSpace=wrap;html=1;fontSize=18;" parent="1" vertex="1">
          <mxGeometry x="930" y="498.35" width="120" height="80" as="geometry" />
        </mxCell>
        <mxCell id="ANhabVghBkRDhz4WXuuL-5" value="" style="group;fontSize=18;" parent="1" vertex="1" connectable="0">
          <mxGeometry x="560" y="484" width="110" height="146" as="geometry" />
        </mxCell>
        <mxCell id="ANhabVghBkRDhz4WXuuL-3" value="&lt;b style=&quot;font-size: 18px;&quot;&gt;&lt;font style=&quot;font-size: 18px;&quot;&gt;Knowledge&lt;br style=&quot;font-size: 18px;&quot;&gt;base&lt;br style=&quot;font-size: 18px;&quot;&gt;&lt;/font&gt;&lt;/b&gt;" style="shape=datastore;whiteSpace=wrap;html=1;fontSize=18;" parent="ANhabVghBkRDhz4WXuuL-5" vertex="1">
          <mxGeometry width="110.00000000000001" height="107.35294117647058" as="geometry" />
        </mxCell>
        <mxCell id="ANhabVghBkRDhz4WXuuL-4" value="ETCD cluster" style="text;html=1;strokeColor=none;fillColor=none;align=center;verticalAlign=middle;whiteSpace=wrap;rounded=0;fontSize=18;" parent="ANhabVghBkRDhz4WXuuL-5" vertex="1">
          <mxGeometry x="18.333333333333336" y="113.79411764705883" width="73.33333333333334" height="32.205882352941174" as="geometry" />
        </mxCell>
        <mxCell id="ANhabVghBkRDhz4WXuuL-12" value="" style="group;fontSize=18;" parent="1" vertex="1" connectable="0">
          <mxGeometry x="680" y="10" width="290.00384615384615" height="182" as="geometry" />
        </mxCell>
        <mxCell id="ANhabVghBkRDhz4WXuuL-10" value="" style="rounded=0;whiteSpace=wrap;html=1;fontSize=18;" parent="ANhabVghBkRDhz4WXuuL-12" vertex="1">
          <mxGeometry width="290" height="180" as="geometry" />
        </mxCell>
        <mxCell id="ANhabVghBkRDhz4WXuuL-11" value="&lt;font style=&quot;font-size: 18px;&quot;&gt;&lt;b style=&quot;font-size: 18px;&quot;&gt;Data steward&lt;/b&gt;&lt;br style=&quot;font-size: 18px;&quot;&gt;Organization 1&lt;br style=&quot;font-size: 18px;&quot;&gt;&lt;/font&gt;" style="text;html=1;strokeColor=none;fillColor=none;align=center;verticalAlign=middle;whiteSpace=wrap;rounded=0;fontSize=18;" parent="ANhabVghBkRDhz4WXuuL-12" vertex="1">
          <mxGeometry x="5.58" y="6.75" width="284.42" height="33.75" as="geometry" />
        </mxCell>
        <mxCell id="ANhabVghBkRDhz4WXuuL-1" value="&lt;span style=&quot;font-size: 18px;&quot;&gt;Distributed agent&lt;/span&gt;" style="rounded=1;whiteSpace=wrap;html=1;fontSize=18;flipH=0;" parent="ANhabVghBkRDhz4WXuuL-12" vertex="1">
          <mxGeometry x="7.196923076923099" y="83.38" width="98.85" height="67.5" as="geometry" />
        </mxCell>
        <mxCell id="zQvSkyohi6HbgcWA1lgZ-20" style="edgeStyle=orthogonalEdgeStyle;rounded=0;orthogonalLoop=1;jettySize=auto;html=1;entryX=0.005;entryY=0.63;entryDx=0;entryDy=0;entryPerimeter=0;" edge="1" parent="ANhabVghBkRDhz4WXuuL-12" source="ANhabVghBkRDhz4WXuuL-1" target="ANhabVghBkRDhz4WXuuL-27">
          <mxGeometry relative="1" as="geometry" />
        </mxCell>
        <mxCell id="ANhabVghBkRDhz4WXuuL-29" value="" style="group;fontSize=18;flipH=0;" parent="ANhabVghBkRDhz4WXuuL-12" vertex="1" connectable="0">
          <mxGeometry x="189.99692307692308" y="60.879999999999995" width="78.07692307692308" height="106.5" as="geometry" />
        </mxCell>
        <mxCell id="ANhabVghBkRDhz4WXuuL-25" value="" style="sketch=0;html=1;dashed=0;whitespace=wrap;fillColor=#2875E2;strokeColor=#ffffff;points=[[0.005,0.63,0],[0.1,0.2,0],[0.9,0.2,0],[0.5,0,0],[0.995,0.63,0],[0.72,0.99,0],[0.5,1,0],[0.28,0.99,0]];verticalLabelPosition=bottom;align=center;verticalAlign=top;shape=mxgraph.kubernetes.icon;prIcon=pod;fontSize=18;" parent="ANhabVghBkRDhz4WXuuL-29" vertex="1">
          <mxGeometry width="44.61538461538461" height="54" as="geometry" />
        </mxCell>
        <mxCell id="ANhabVghBkRDhz4WXuuL-26" value="" style="sketch=0;html=1;dashed=0;whitespace=wrap;fillColor=#2875E2;strokeColor=#ffffff;points=[[0.005,0.63,0],[0.1,0.2,0],[0.9,0.2,0],[0.5,0,0],[0.995,0.63,0],[0.72,0.99,0],[0.5,1,0],[0.28,0.99,0]];verticalLabelPosition=bottom;align=center;verticalAlign=top;shape=mxgraph.kubernetes.icon;prIcon=pod;fontSize=18;" parent="ANhabVghBkRDhz4WXuuL-29" vertex="1">
          <mxGeometry x="11.153846153846153" y="11.25" width="44.61538461538461" height="54" as="geometry" />
        </mxCell>
        <mxCell id="ANhabVghBkRDhz4WXuuL-27" value="" style="sketch=0;html=1;dashed=0;whitespace=wrap;fillColor=#2875E2;strokeColor=#ffffff;points=[[0.005,0.63,0],[0.1,0.2,0],[0.9,0.2,0],[0.5,0,0],[0.995,0.63,0],[0.72,0.99,0],[0.5,1,0],[0.28,0.99,0]];verticalLabelPosition=bottom;align=center;verticalAlign=top;shape=mxgraph.kubernetes.icon;prIcon=pod;fontSize=18;" parent="ANhabVghBkRDhz4WXuuL-29" vertex="1">
          <mxGeometry x="22.307692307692307" y="22.5" width="44.61538461538461" height="54" as="geometry" />
        </mxCell>
        <mxCell id="ANhabVghBkRDhz4WXuuL-28" value="" style="sketch=0;html=1;dashed=0;whitespace=wrap;fillColor=#2875E2;strokeColor=#ffffff;points=[[0.005,0.63,0],[0.1,0.2,0],[0.9,0.2,0],[0.5,0,0],[0.995,0.63,0],[0.72,0.99,0],[0.5,1,0],[0.28,0.99,0]];verticalLabelPosition=bottom;align=center;verticalAlign=top;shape=mxgraph.kubernetes.icon;prIcon=pod;fontSize=18;" parent="ANhabVghBkRDhz4WXuuL-29" vertex="1">
          <mxGeometry x="33.46153846153846" y="33.75" width="44.61538461538461" height="54" as="geometry" />
        </mxCell>
        <mxCell id="ANhabVghBkRDhz4WXuuL-39" value="Microservices" style="text;html=1;strokeColor=none;fillColor=none;align=center;verticalAlign=middle;whiteSpace=wrap;rounded=0;fontSize=18;" parent="ANhabVghBkRDhz4WXuuL-29" vertex="1">
          <mxGeometry x="14.6130769230769" y="87.75" width="60" height="30" as="geometry" />
        </mxCell>
        <mxCell id="zQvSkyohi6HbgcWA1lgZ-19" value="&lt;font style=&quot;font-size: 18px;&quot;&gt;Execute&lt;/font&gt;" style="text;html=1;strokeColor=none;fillColor=none;align=center;verticalAlign=middle;whiteSpace=wrap;rounded=0;fontSize=18;" vertex="1" parent="ANhabVghBkRDhz4WXuuL-12">
          <mxGeometry x="123.07538461538468" y="115.13" width="66.92307692307692" height="33.75" as="geometry" />
        </mxCell>
        <mxCell id="ANhabVghBkRDhz4WXuuL-82" value="" style="endArrow=classic;html=1;rounded=0;exitX=1;exitY=0;exitDx=0;exitDy=0;edgeStyle=orthogonalEdgeStyle;curved=1;entryX=1;entryY=1;entryDx=0;entryDy=0;fontSize=18;" parent="1" source="ANhabVghBkRDhz4WXuuL-2" target="ANhabVghBkRDhz4WXuuL-2" edge="1">
          <mxGeometry width="50" height="50" relative="1" as="geometry">
            <mxPoint x="-9" y="508" as="sourcePoint" />
            <mxPoint x="41" y="458" as="targetPoint" />
            <Array as="points">
              <mxPoint x="1141" y="552" />
            </Array>
          </mxGeometry>
        </mxCell>
        <mxCell id="ANhabVghBkRDhz4WXuuL-83" value="&lt;font style=&quot;font-size: 18px;&quot;&gt;Analyse&lt;br style=&quot;font-size: 18px;&quot;&gt;&amp;amp;&lt;br style=&quot;font-size: 18px;&quot;&gt;Plan&lt;br style=&quot;font-size: 18px;&quot;&gt;&lt;/font&gt;" style="text;html=1;strokeColor=none;fillColor=none;align=center;verticalAlign=middle;whiteSpace=wrap;rounded=0;fontSize=18;" parent="1" vertex="1">
          <mxGeometry x="1081" y="506.85" width="60" height="63" as="geometry" />
        </mxCell>
        <mxCell id="ANhabVghBkRDhz4WXuuL-100" value="" style="endArrow=none;dashed=1;html=1;dashPattern=1 3;strokeWidth=2;rounded=0;fontSize=18;" parent="1" edge="1">
          <mxGeometry width="50" height="50" relative="1" as="geometry">
            <mxPoint x="390" y="440" as="sourcePoint" />
            <mxPoint x="1150" y="442.25" as="targetPoint" />
          </mxGeometry>
        </mxCell>
        <mxCell id="ANhabVghBkRDhz4WXuuL-101" value="&lt;b style=&quot;font-size: 18px;&quot;&gt;Managed system&lt;/b&gt;" style="text;html=1;strokeColor=none;fillColor=none;align=center;verticalAlign=middle;whiteSpace=wrap;rounded=0;fontSize=18;" parent="1" vertex="1">
          <mxGeometry x="370" y="400" width="120" height="30" as="geometry" />
        </mxCell>
        <mxCell id="ANhabVghBkRDhz4WXuuL-102" value="&lt;b style=&quot;font-size: 18px;&quot;&gt;Automatic Manager&lt;/b&gt;" style="text;html=1;strokeColor=none;fillColor=none;align=center;verticalAlign=middle;whiteSpace=wrap;rounded=0;fontSize=18;" parent="1" vertex="1">
          <mxGeometry x="370" y="449" width="120" height="30" as="geometry" />
        </mxCell>
        <mxCell id="dhcWVa6BlOpjy2pmR8ij-8" value="&lt;font style=&quot;font-size: 18px;&quot;&gt;Execute&lt;/font&gt;" style="text;html=1;strokeColor=none;fillColor=none;align=center;verticalAlign=middle;whiteSpace=wrap;rounded=0;fontSize=18;" parent="1" vertex="1">
          <mxGeometry x="1000" y="465" width="60" height="30" as="geometry" />
        </mxCell>
        <mxCell id="zQvSkyohi6HbgcWA1lgZ-40" style="edgeStyle=orthogonalEdgeStyle;rounded=0;orthogonalLoop=1;jettySize=auto;html=1;" edge="1" parent="1" target="ANhabVghBkRDhz4WXuuL-3">
          <mxGeometry relative="1" as="geometry">
            <mxPoint x="500" y="538.375" as="sourcePoint" />
          </mxGeometry>
        </mxCell>
        <mxCell id="zQvSkyohi6HbgcWA1lgZ-46" style="edgeStyle=orthogonalEdgeStyle;rounded=0;orthogonalLoop=1;jettySize=auto;html=1;entryX=0.5;entryY=1;entryDx=0;entryDy=0;curved=1;startArrow=classic;startFill=1;" edge="1" parent="1" target="ANhabVghBkRDhz4WXuuL-2">
          <mxGeometry relative="1" as="geometry">
            <mxPoint x="440" y="568.3500000000001" as="sourcePoint" />
            <Array as="points">
              <mxPoint x="440" y="660" />
              <mxPoint x="990" y="660" />
            </Array>
          </mxGeometry>
        </mxCell>
        <mxCell id="r78qJcoan1njcgXMnRQD-2" value="&lt;b style=&quot;font-size: 18px;&quot;&gt;&lt;font style=&quot;font-size: 18px;&quot;&gt;Reasoner&lt;/font&gt;&lt;/b&gt;" style="rounded=1;whiteSpace=wrap;html=1;fontSize=18;" parent="1" vertex="1">
          <mxGeometry x="380" y="509.85" width="120" height="60" as="geometry" />
        </mxCell>
        <mxCell id="zQvSkyohi6HbgcWA1lgZ-23" value="" style="group;fontSize=18;" vertex="1" connectable="0" parent="1">
          <mxGeometry x="680" y="250" width="290.00384615384615" height="182" as="geometry" />
        </mxCell>
        <mxCell id="zQvSkyohi6HbgcWA1lgZ-24" value="" style="rounded=0;whiteSpace=wrap;html=1;fontSize=18;" vertex="1" parent="zQvSkyohi6HbgcWA1lgZ-23">
          <mxGeometry width="290" height="180" as="geometry" />
        </mxCell>
        <mxCell id="zQvSkyohi6HbgcWA1lgZ-25" value="&lt;font style=&quot;font-size: 18px;&quot;&gt;&lt;b style=&quot;font-size: 18px;&quot;&gt;Data steward&lt;/b&gt;&lt;br style=&quot;font-size: 18px;&quot;&gt;Organization 1&lt;br style=&quot;font-size: 18px;&quot;&gt;&lt;/font&gt;" style="text;html=1;strokeColor=none;fillColor=none;align=center;verticalAlign=middle;whiteSpace=wrap;rounded=0;fontSize=18;" vertex="1" parent="zQvSkyohi6HbgcWA1lgZ-23">
          <mxGeometry x="5.58" y="6.75" width="284.42" height="33.75" as="geometry" />
        </mxCell>
        <mxCell id="zQvSkyohi6HbgcWA1lgZ-26" value="&lt;span style=&quot;font-size: 18px;&quot;&gt;Distributed agent&lt;/span&gt;" style="rounded=1;whiteSpace=wrap;html=1;fontSize=18;flipH=0;" vertex="1" parent="zQvSkyohi6HbgcWA1lgZ-23">
          <mxGeometry x="7.196923076923099" y="83.38" width="98.85" height="67.5" as="geometry" />
        </mxCell>
        <mxCell id="zQvSkyohi6HbgcWA1lgZ-27" style="edgeStyle=orthogonalEdgeStyle;rounded=0;orthogonalLoop=1;jettySize=auto;html=1;entryX=0.005;entryY=0.63;entryDx=0;entryDy=0;entryPerimeter=0;" edge="1" parent="zQvSkyohi6HbgcWA1lgZ-23" source="zQvSkyohi6HbgcWA1lgZ-26" target="zQvSkyohi6HbgcWA1lgZ-31">
          <mxGeometry relative="1" as="geometry" />
        </mxCell>
        <mxCell id="zQvSkyohi6HbgcWA1lgZ-28" value="" style="group;fontSize=18;flipH=0;" vertex="1" connectable="0" parent="zQvSkyohi6HbgcWA1lgZ-23">
          <mxGeometry x="189.99692307692308" y="60.879999999999995" width="78.07692307692308" height="106.5" as="geometry" />
        </mxCell>
        <mxCell id="zQvSkyohi6HbgcWA1lgZ-29" value="" style="sketch=0;html=1;dashed=0;whitespace=wrap;fillColor=#2875E2;strokeColor=#ffffff;points=[[0.005,0.63,0],[0.1,0.2,0],[0.9,0.2,0],[0.5,0,0],[0.995,0.63,0],[0.72,0.99,0],[0.5,1,0],[0.28,0.99,0]];verticalLabelPosition=bottom;align=center;verticalAlign=top;shape=mxgraph.kubernetes.icon;prIcon=pod;fontSize=18;" vertex="1" parent="zQvSkyohi6HbgcWA1lgZ-28">
          <mxGeometry width="44.61538461538461" height="54" as="geometry" />
        </mxCell>
        <mxCell id="zQvSkyohi6HbgcWA1lgZ-30" value="" style="sketch=0;html=1;dashed=0;whitespace=wrap;fillColor=#2875E2;strokeColor=#ffffff;points=[[0.005,0.63,0],[0.1,0.2,0],[0.9,0.2,0],[0.5,0,0],[0.995,0.63,0],[0.72,0.99,0],[0.5,1,0],[0.28,0.99,0]];verticalLabelPosition=bottom;align=center;verticalAlign=top;shape=mxgraph.kubernetes.icon;prIcon=pod;fontSize=18;" vertex="1" parent="zQvSkyohi6HbgcWA1lgZ-28">
          <mxGeometry x="11.153846153846153" y="11.25" width="44.61538461538461" height="54" as="geometry" />
        </mxCell>
        <mxCell id="zQvSkyohi6HbgcWA1lgZ-31" value="" style="sketch=0;html=1;dashed=0;whitespace=wrap;fillColor=#2875E2;strokeColor=#ffffff;points=[[0.005,0.63,0],[0.1,0.2,0],[0.9,0.2,0],[0.5,0,0],[0.995,0.63,0],[0.72,0.99,0],[0.5,1,0],[0.28,0.99,0]];verticalLabelPosition=bottom;align=center;verticalAlign=top;shape=mxgraph.kubernetes.icon;prIcon=pod;fontSize=18;" vertex="1" parent="zQvSkyohi6HbgcWA1lgZ-28">
          <mxGeometry x="22.307692307692307" y="22.5" width="44.61538461538461" height="54" as="geometry" />
        </mxCell>
        <mxCell id="zQvSkyohi6HbgcWA1lgZ-32" value="" style="sketch=0;html=1;dashed=0;whitespace=wrap;fillColor=#2875E2;strokeColor=#ffffff;points=[[0.005,0.63,0],[0.1,0.2,0],[0.9,0.2,0],[0.5,0,0],[0.995,0.63,0],[0.72,0.99,0],[0.5,1,0],[0.28,0.99,0]];verticalLabelPosition=bottom;align=center;verticalAlign=top;shape=mxgraph.kubernetes.icon;prIcon=pod;fontSize=18;" vertex="1" parent="zQvSkyohi6HbgcWA1lgZ-28">
          <mxGeometry x="33.46153846153846" y="33.75" width="44.61538461538461" height="54" as="geometry" />
        </mxCell>
        <mxCell id="zQvSkyohi6HbgcWA1lgZ-33" value="Microservices" style="text;html=1;strokeColor=none;fillColor=none;align=center;verticalAlign=middle;whiteSpace=wrap;rounded=0;fontSize=18;" vertex="1" parent="zQvSkyohi6HbgcWA1lgZ-28">
          <mxGeometry x="14.6130769230769" y="87.75" width="60" height="30" as="geometry" />
        </mxCell>
        <mxCell id="zQvSkyohi6HbgcWA1lgZ-34" value="&lt;font style=&quot;font-size: 18px;&quot;&gt;Execute&lt;/font&gt;" style="text;html=1;strokeColor=none;fillColor=none;align=center;verticalAlign=middle;whiteSpace=wrap;rounded=0;fontSize=18;" vertex="1" parent="zQvSkyohi6HbgcWA1lgZ-23">
          <mxGeometry x="123.07538461538468" y="115.13" width="66.92307692307692" height="33.75" as="geometry" />
        </mxCell>
        <mxCell id="zQvSkyohi6HbgcWA1lgZ-42" style="edgeStyle=orthogonalEdgeStyle;rounded=0;orthogonalLoop=1;jettySize=auto;html=1;entryX=0.5;entryY=0;entryDx=0;entryDy=0;exitX=0.5;exitY=0;exitDx=0;exitDy=0;" edge="1" parent="1" source="ANhabVghBkRDhz4WXuuL-2" target="zQvSkyohi6HbgcWA1lgZ-26">
          <mxGeometry relative="1" as="geometry">
            <Array as="points">
              <mxPoint x="990" y="220" />
              <mxPoint x="737" y="220" />
            </Array>
          </mxGeometry>
        </mxCell>
        <mxCell id="zQvSkyohi6HbgcWA1lgZ-43" style="edgeStyle=orthogonalEdgeStyle;rounded=0;orthogonalLoop=1;jettySize=auto;html=1;exitX=0.5;exitY=0;exitDx=0;exitDy=0;" edge="1" parent="1" source="ANhabVghBkRDhz4WXuuL-2" target="ANhabVghBkRDhz4WXuuL-1">
          <mxGeometry relative="1" as="geometry">
            <Array as="points">
              <mxPoint x="990" y="220" />
              <mxPoint x="737" y="220" />
            </Array>
          </mxGeometry>
        </mxCell>
        <mxCell id="zQvSkyohi6HbgcWA1lgZ-45" value="&lt;font style=&quot;font-size: 18px;&quot;&gt;Monitor&lt;/font&gt;" style="text;html=1;strokeColor=none;fillColor=none;align=center;verticalAlign=middle;whiteSpace=wrap;rounded=0;fontSize=18;" vertex="1" parent="1">
          <mxGeometry x="780" y="542" width="60" height="30" as="geometry" />
        </mxCell>
        <mxCell id="zQvSkyohi6HbgcWA1lgZ-47" style="edgeStyle=orthogonalEdgeStyle;rounded=0;orthogonalLoop=1;jettySize=auto;html=1;entryX=0.5;entryY=0;entryDx=0;entryDy=0;" edge="1" parent="1" source="zQvSkyohi6HbgcWA1lgZ-26" target="ANhabVghBkRDhz4WXuuL-3">
          <mxGeometry relative="1" as="geometry">
            <Array as="points">
              <mxPoint x="615" y="367" />
            </Array>
          </mxGeometry>
        </mxCell>
        <mxCell id="zQvSkyohi6HbgcWA1lgZ-48" style="edgeStyle=orthogonalEdgeStyle;rounded=0;orthogonalLoop=1;jettySize=auto;html=1;entryX=0.5;entryY=0;entryDx=0;entryDy=0;" edge="1" parent="1" source="ANhabVghBkRDhz4WXuuL-1" target="ANhabVghBkRDhz4WXuuL-3">
          <mxGeometry relative="1" as="geometry">
            <Array as="points">
              <mxPoint x="615" y="127" />
            </Array>
          </mxGeometry>
        </mxCell>
      </root>
    </mxGraphModel>
  </diagram>
</mxfile>
